<svg width="24" height="24" viewBox="0 0 24 24" fill="none" xmlns="http://www.w3.org/2000/svg">
  <!-- DevCanvas AI Icon - Robot with Canvas/Code -->
  <g fill="currentColor">
    <!-- Robot Head -->
    <rect x="6" y="2" width="12" height="10" rx="2" stroke="currentColor" stroke-width="1.5" fill="none"/>
    
    <!-- Eyes -->
    <circle cx="9" cy="6" r="1.5" fill="currentColor"/>
    <circle cx="15" cy="6" r="1.5" fill="currentColor"/>
    
    <!-- Mouth/Interface -->
    <rect x="8" y="8" width="8" height="2" rx="1" fill="currentColor"/>
    
    <!-- Antenna -->
    <line x1="12" y1="2" x2="12" y2="0.5" stroke="currentColor" stroke-width="1.5"/>
    <circle cx="12" cy="0.5" r="0.5" fill="currentColor"/>
    
    <!-- Body/Canvas -->
    <rect x="8" y="12" width="8" height="8" rx="1" stroke="currentColor" stroke-width="1.5" fill="none"/>
    
    <!-- Code Lines on Canvas -->
    <line x1="10" y1="14" x2="14" y2="14" stroke="currentColor" stroke-width="1"/>
    <line x1="10" y1="16" x2="13" y2="16" stroke="currentColor" stroke-width="1"/>
    <line x1="10" y1="18" x2="14" y2="18" stroke="currentColor" stroke-width="1"/>
    
    <!-- Arms -->
    <line x1="6" y1="14" x2="4" y2="16" stroke="currentColor" stroke-width="1.5"/>
    <line x1="18" y1="14" x2="20" y2="16" stroke="currentColor" stroke-width="1.5"/>
    
    <!-- Hands -->
    <circle cx="3.5" cy="16.5" r="1" fill="currentColor"/>
    <circle cx="20.5" cy="16.5" r="1" fill="currentColor"/>
    
    <!-- Legs -->
    <line x1="10" y1="20" x2="10" y2="22" stroke="currentColor" stroke-width="1.5"/>
    <line x1="14" y1="20" x2="14" y2="22" stroke="currentColor" stroke-width="1.5"/>
    
    <!-- Feet -->
    <line x1="8" y1="22" x2="12" y2="22" stroke="currentColor" stroke-width="1.5"/>
    <line x1="12" y1="22" x2="16" y2="22" stroke="currentColor" stroke-width="1.5"/>
  </g>
</svg>